M48
;Layer_Color=6321
;FILE_FORMAT=2:5
INCH,TZ
;TYPE=PLATED
T1F00S00C0.01575
T2F00S00C0.03543
T3F00S00C0.04724
T4F00S00C0.09843
;TYPE=NON_PLATED
T5F00S00C0.09843
%
T01
X55512Y3937
Y9843
X69685
Y3937
X70079Y24409
X75197Y26378
X77165Y31496
X75197Y36614
X70079Y38583
X64961Y36614
X62992Y31496
X64961Y26378
X66929Y53937
X62598Y56299
X57480Y57087
Y67126
X61713Y67224
X66929Y67323
X66535Y81890
X65748Y87795
X64961Y91339
X68504Y90551
X60236Y91339
X55512
X50787
X46063
X41339
X50787Y75197
X50000Y63386
X77559Y89370
X36614Y91339
X30709
X27165
X23622
X34646Y69685
X33071Y58268
X36614Y55512
X37008Y51968
X40551Y50787
X28346Y46457
X16929Y40551
X18898Y35433
X16929Y30315
X11811Y28346
X6693Y30315
X4724Y35433
X6693Y40551
X11811Y42520
X24409Y30315
Y26772
X20866Y26378
T02
X45276Y30315
X55276
X85827Y25433
Y35433
Y45433
Y55433
Y65433
Y75433
Y85433
Y15433
Y5433
X37008Y12598
X32677Y17323
X11417
X7087Y12598
X11811Y55512
Y63386
T03
X8268Y5512
X17323Y6299
X26772
X35827Y5512
X11811Y49606
Y69291
T04
X70079Y31496
X11811Y35433
T05
X11417Y83858
M30
