G04*
G04 #@! TF.GenerationSoftware,Altium Limited,CircuitStudio,1.5.2 (30)*
G04*
G04 Layer_Color=13948096*
%FSLAX25Y25*%
%MOIN*%
G70*
G01*
G75*
%ADD26C,0.01181*%
%ADD27C,0.00787*%
%ADD55C,0.00394*%
%ADD56C,0.00591*%
%ADD91R,0.15354X0.14173*%
D26*
X67716Y69685D02*
G03*
X61811Y69685I-2953J-2953D01*
G01*
X67716D02*
G03*
X73622Y69685I2953J2953D01*
G01*
X79528Y57874D02*
Y69685D01*
X79527Y63779D02*
X79528D01*
X73622Y57874D02*
X79527Y63779D01*
X67716Y75590D02*
X79527Y63779D01*
X55905D02*
X67716Y75590D01*
X55905Y63779D02*
X67716D01*
X50000Y69685D02*
X61811D01*
D27*
X21260Y83858D02*
G03*
X21260Y83858I-9843J0D01*
G01*
X81102Y31496D02*
G03*
X81102Y31496I-11024J0D01*
G01*
X22835Y35433D02*
G03*
X22835Y35433I-11024J0D01*
G01*
X36220D02*
X59055D01*
X36220Y18110D02*
Y35433D01*
Y18110D02*
X59055D01*
Y35433D01*
X56299Y21260D02*
Y25196D01*
X54331D01*
X53675Y24540D01*
Y23228D01*
X54331Y22572D01*
X56299D01*
X49740Y23884D02*
X51708D01*
X52364Y23228D01*
Y21916D01*
X51708Y21260D01*
X49740D01*
X48428Y25196D02*
Y21260D01*
Y23228D01*
X47772Y23884D01*
X46460D01*
X45804Y23228D01*
Y21260D01*
X44492Y23884D02*
Y21260D01*
Y22572D01*
X43836Y23228D01*
X43180Y23884D01*
X42524D01*
X39244Y19948D02*
X38588D01*
X37932Y20604D01*
Y23884D01*
X39900D01*
X40556Y23228D01*
Y21916D01*
X39900Y21260D01*
X37932D01*
X2363Y74410D02*
Y77033D01*
X1051Y75721D02*
X3675D01*
D55*
X61417Y81102D02*
G03*
X61417Y81102I-4331J0D01*
G01*
X52362Y75197D02*
G03*
X52362Y75197I-4331J0D01*
G01*
X22898Y35433D02*
G03*
X22898Y35433I-11087J0D01*
G01*
X81109Y31496D02*
G03*
X81109Y31496I-11031J0D01*
G01*
X1575Y73622D02*
X25591D01*
Y46850D02*
Y73622D01*
X0Y46850D02*
X25591D01*
D56*
X41732Y72440D02*
Y70341D01*
X40683Y69291D01*
X39633Y70341D01*
Y72440D01*
X36485Y71390D02*
X38059D01*
X38584Y70866D01*
Y69816D01*
X38059Y69291D01*
X36485D01*
X33336Y71390D02*
X34910D01*
X35435Y70866D01*
Y69816D01*
X34910Y69291D01*
X33336D01*
X42520Y77164D02*
X40421D01*
X41470D01*
Y74016D01*
X39371D02*
Y77164D01*
X37797D01*
X37272Y76640D01*
Y75590D01*
X37797Y75065D01*
X39371D01*
X36222Y73491D02*
X34123D01*
X30975Y74016D02*
X33074D01*
X30975Y76115D01*
Y76640D01*
X31500Y77164D01*
X32549D01*
X33074Y76640D01*
X48295Y83857D02*
X50394D01*
Y80709D01*
X48295D01*
X50394Y82283D02*
X49344D01*
X47245Y80709D02*
Y83857D01*
X45146Y80709D01*
Y83857D01*
X44096Y82283D02*
X41998D01*
X39374Y83857D02*
X40423D01*
X40948Y83333D01*
Y81233D01*
X40423Y80709D01*
X39374D01*
X38849Y81233D01*
Y83333D01*
X39374Y83857D01*
X37799Y82808D02*
Y81233D01*
X37275Y80709D01*
X35700D01*
Y82808D01*
X34126Y83333D02*
Y82808D01*
X34651D01*
X33601D01*
X34126D01*
Y81233D01*
X33601Y80709D01*
X50984Y88384D02*
X48885D01*
X49935D01*
Y85235D01*
X47836D02*
Y88384D01*
X46261D01*
X45737Y87859D01*
Y86809D01*
X46261Y86285D01*
X47836D01*
X44687Y84710D02*
X42588D01*
X41539Y85235D02*
X40489D01*
X41014D01*
Y88384D01*
X41539Y87859D01*
X14567Y22637D02*
X12206D01*
X29134Y26180D02*
X26772D01*
X27953Y27361D02*
Y25000D01*
X57087Y42519D02*
Y40682D01*
X56168Y39764D01*
X55250Y40682D01*
Y42519D01*
X52954Y39764D02*
X53872D01*
X54332Y40223D01*
Y41141D01*
X53872Y41600D01*
X52954D01*
X52495Y41141D01*
Y40682D01*
X54332D01*
X51577Y41600D02*
Y39764D01*
Y40682D01*
X51117Y41141D01*
X50658Y41600D01*
X50199D01*
X46066Y39764D02*
X45148D01*
X45607D01*
Y42519D01*
X46066Y42060D01*
X92519Y80709D02*
X90945D01*
X90158Y81496D01*
X90945Y82283D01*
X92519D01*
Y84251D02*
Y83464D01*
X92125Y83070D01*
X90551D01*
X90158Y83464D01*
Y84251D01*
X90551Y84644D01*
X92125D01*
X92519Y84251D01*
Y85431D02*
X90551D01*
X90158Y85825D01*
Y86612D01*
X90551Y87006D01*
X92519D01*
Y87793D02*
Y89367D01*
Y88580D01*
X90158D01*
X92125Y73228D02*
X92519Y72834D01*
Y72047D01*
X92125Y71653D01*
X90551D01*
X90158Y72047D01*
Y72834D01*
X90551Y73228D01*
X91338D01*
Y72441D01*
X90158Y74015D02*
X92519D01*
X90158Y75589D01*
X92519D01*
Y76376D02*
X90158D01*
Y77557D01*
X90551Y77951D01*
X92125D01*
X92519Y77557D01*
Y76376D01*
X90158Y62598D02*
X92519D01*
Y63779D01*
X92125Y64173D01*
X91338D01*
X90945Y63779D01*
Y62598D01*
X92519Y64960D02*
X90158D01*
Y66141D01*
X90551Y66534D01*
X90945D01*
X91338Y66141D01*
Y64960D01*
Y66141D01*
X91732Y66534D01*
X92125D01*
X92519Y66141D01*
Y64960D01*
X92125Y67321D02*
X92519Y67715D01*
Y68502D01*
X92125Y68896D01*
X91732D01*
X91338Y68502D01*
Y68108D01*
Y68502D01*
X90945Y68896D01*
X90551D01*
X90158Y68502D01*
Y67715D01*
X90551Y67321D01*
X90945Y51181D02*
X92913D01*
X90551D02*
X90158D01*
Y51968D02*
X92519D01*
Y53149D01*
X92125Y53543D01*
X91338D01*
X90945Y53149D01*
Y51968D01*
Y52755D02*
X90158Y53543D01*
X92125Y55904D02*
X92519Y55510D01*
Y54723D01*
X92125Y54330D01*
X91732D01*
X91338Y54723D01*
Y55510D01*
X90945Y55904D01*
X90551D01*
X90158Y55510D01*
Y54723D01*
X90551Y54330D01*
X92519Y56691D02*
Y58265D01*
Y57478D01*
X90158D01*
Y41339D02*
X92519D01*
Y42519D01*
X92125Y42913D01*
X91338D01*
X90945Y42519D01*
Y41339D01*
X92519Y43700D02*
X90158D01*
Y44881D01*
X90551Y45274D01*
X90945D01*
X91338Y44881D01*
Y43700D01*
Y44881D01*
X91732Y45274D01*
X92125D01*
X92519Y44881D01*
Y43700D01*
X92125Y46062D02*
X92519Y46455D01*
Y47242D01*
X92125Y47636D01*
X90551D01*
X90158Y47242D01*
Y46455D01*
X90551Y46062D01*
X92125D01*
X90158Y31496D02*
X92519D01*
Y32677D01*
X92125Y33070D01*
X91338D01*
X90945Y32677D01*
Y31496D01*
X92519Y33858D02*
X90158D01*
Y35038D01*
X90551Y35432D01*
X90945D01*
X91338Y35038D01*
Y33858D01*
Y35038D01*
X91732Y35432D01*
X92125D01*
X92519Y35038D01*
Y33858D01*
X90158Y36219D02*
Y37006D01*
Y36612D01*
X92519D01*
X92125Y36219D01*
X92519Y24015D02*
Y22441D01*
X91338D01*
X91732Y23228D01*
Y23622D01*
X91338Y24015D01*
X90551D01*
X90158Y23622D01*
Y22835D01*
X90551Y22441D01*
X92519Y24802D02*
X90945D01*
X90158Y25589D01*
X90945Y26377D01*
X92519D01*
X89764Y12598D02*
X92125D01*
Y13779D01*
X91732Y14173D01*
X90944D01*
X90551Y13779D01*
Y12598D01*
X92125Y14960D02*
X89764D01*
Y16141D01*
X90157Y16534D01*
X90551D01*
X90944Y16141D01*
Y14960D01*
Y16141D01*
X91338Y16534D01*
X91732D01*
X92125Y16141D01*
Y14960D01*
X89764Y18896D02*
Y17321D01*
X91338Y18896D01*
X91732D01*
X92125Y18502D01*
Y17715D01*
X91732Y17321D01*
X91338Y4724D02*
X91732Y4330D01*
Y3543D01*
X91338Y3150D01*
X89764D01*
X89370Y3543D01*
Y4330D01*
X89764Y4724D01*
X90551D01*
Y3937D01*
X89370Y5511D02*
X91732D01*
X89370Y7085D01*
X91732D01*
Y7873D02*
X89370D01*
Y9053D01*
X89764Y9447D01*
X91338D01*
X91732Y9053D01*
Y7873D01*
X81890Y49605D02*
X80053D01*
X80971D01*
Y46850D01*
X79135D02*
X78216D01*
X78676D01*
Y48687D01*
X79135D01*
X76839Y46850D02*
Y48687D01*
X75461D01*
X75002Y48228D01*
Y46850D01*
X74084Y48687D02*
Y47310D01*
X73625Y46850D01*
X72247D01*
Y46391D01*
X72706Y45932D01*
X73166D01*
X72247Y46850D02*
Y48687D01*
X68574Y46850D02*
Y49605D01*
X67196D01*
X66737Y49146D01*
Y48228D01*
X67196Y47769D01*
X68574D01*
X65360Y46850D02*
X64441D01*
X63982Y47310D01*
Y48228D01*
X64441Y48687D01*
X65360D01*
X65819Y48228D01*
Y47310D01*
X65360Y46850D01*
X63064Y48687D02*
Y47310D01*
X62605Y46850D01*
X62146Y47310D01*
X61686Y46850D01*
X61227Y47310D01*
Y48687D01*
X58931Y46850D02*
X59850D01*
X60309Y47310D01*
Y48228D01*
X59850Y48687D01*
X58931D01*
X58472Y48228D01*
Y47769D01*
X60309D01*
X57554Y48687D02*
Y46850D01*
Y47769D01*
X57095Y48228D01*
X56635Y48687D01*
X56176D01*
X50207Y49146D02*
X50666Y49605D01*
X51585D01*
X52044Y49146D01*
Y47310D01*
X51585Y46850D01*
X50666D01*
X50207Y47310D01*
X48829Y46850D02*
X47911D01*
X47452Y47310D01*
Y48228D01*
X47911Y48687D01*
X48829D01*
X49289Y48228D01*
Y47310D01*
X48829Y46850D01*
X46534D02*
Y48687D01*
X45156D01*
X44697Y48228D01*
Y46850D01*
X43319Y49146D02*
Y48687D01*
X43779D01*
X42860D01*
X43319D01*
Y47310D01*
X42860Y46850D01*
X41483Y48687D02*
Y46850D01*
Y47769D01*
X41024Y48228D01*
X40565Y48687D01*
X40105D01*
X38269Y46850D02*
X37350D01*
X36891Y47310D01*
Y48228D01*
X37350Y48687D01*
X38269D01*
X38728Y48228D01*
Y47310D01*
X38269Y46850D01*
X35973D02*
X35054D01*
X35514D01*
Y49605D01*
X35973D01*
X33677Y46850D02*
X32759D01*
X33218D01*
Y49605D01*
X33677D01*
X30004Y46850D02*
X30922D01*
X31381Y47310D01*
Y48228D01*
X30922Y48687D01*
X30004D01*
X29544Y48228D01*
Y47769D01*
X31381D01*
X28626Y48687D02*
Y46850D01*
Y47769D01*
X28167Y48228D01*
X27708Y48687D01*
X27248D01*
X21653Y50000D02*
Y52624D01*
X23621Y53936D02*
X19685D01*
Y55904D01*
X20341Y56560D01*
X20997D01*
X21653Y55904D01*
Y53936D01*
Y55904D01*
X22309Y56560D01*
X22965D01*
X23621Y55904D01*
Y53936D01*
X19685Y57872D02*
X22309D01*
X23621Y59183D01*
X22309Y60495D01*
X19685D01*
X21653D01*
Y57872D01*
X23621Y61807D02*
Y64431D01*
Y63119D01*
X19685D01*
X21653Y65743D02*
Y68367D01*
X22965Y67055D02*
X20341D01*
X1969Y43307D02*
Y45931D01*
D91*
X32087Y36614D02*
D03*
M02*
