G04*
G04 #@! TF.GenerationSoftware,Altium Limited,CircuitStudio,1.5.2 (30)*
G04*
G04 Layer_Physical_Order=1*
G04 Layer_Color=11767835*
%FSLAX25Y25*%
%MOIN*%
G70*
G01*
G75*
G04:AMPARAMS|DCode=10|XSize=55.12mil|YSize=43.31mil|CornerRadius=10.83mil|HoleSize=0mil|Usage=FLASHONLY|Rotation=180.000|XOffset=0mil|YOffset=0mil|HoleType=Round|Shape=RoundedRectangle|*
%AMROUNDEDRECTD10*
21,1,0.05512,0.02165,0,0,180.0*
21,1,0.03347,0.04331,0,0,180.0*
1,1,0.02165,-0.01673,0.01083*
1,1,0.02165,0.01673,0.01083*
1,1,0.02165,0.01673,-0.01083*
1,1,0.02165,-0.01673,-0.01083*
%
%ADD10ROUNDEDRECTD10*%
G04:AMPARAMS|DCode=11|XSize=59.06mil|YSize=55.12mil|CornerRadius=13.78mil|HoleSize=0mil|Usage=FLASHONLY|Rotation=180.000|XOffset=0mil|YOffset=0mil|HoleType=Round|Shape=RoundedRectangle|*
%AMROUNDEDRECTD11*
21,1,0.05906,0.02756,0,0,180.0*
21,1,0.03150,0.05512,0,0,180.0*
1,1,0.02756,-0.01575,0.01378*
1,1,0.02756,0.01575,0.01378*
1,1,0.02756,0.01575,-0.01378*
1,1,0.02756,-0.01575,-0.01378*
%
%ADD11ROUNDEDRECTD11*%
%ADD12R,0.01575X0.09449*%
%ADD13R,0.02362X0.05512*%
%ADD14R,0.02362X0.01969*%
%ADD15R,0.02362X0.03543*%
%ADD16R,0.02362X0.07087*%
%ADD17R,0.03543X0.02362*%
%ADD18R,0.03937X0.05906*%
%ADD19R,0.05906X0.03937*%
%ADD20R,0.03543X0.03150*%
%ADD21R,0.03150X0.03543*%
%ADD22R,0.08661X0.05906*%
%ADD23C,0.05512*%
%ADD24C,0.03937*%
%ADD25C,0.01575*%
%ADD26C,0.01181*%
%ADD27C,0.00787*%
%ADD28C,0.02362*%
%ADD29C,0.03150*%
%ADD30R,0.09449X0.10236*%
%ADD31R,0.11417X0.08661*%
%ADD32R,0.12205X0.09449*%
%ADD33R,0.07874X0.33858*%
%ADD34R,0.12992X0.08661*%
%ADD35R,0.13780X0.07480*%
%ADD36R,0.07480X0.02362*%
%ADD37R,0.45276X0.02756*%
%ADD38R,0.02756X0.05118*%
%ADD39R,0.06299X0.06299*%
%ADD40O,0.05512X0.06299*%
G04:AMPARAMS|DCode=41|XSize=70.87mil|YSize=70.87mil|CornerRadius=17.72mil|HoleSize=0mil|Usage=FLASHONLY|Rotation=180.000|XOffset=0mil|YOffset=0mil|HoleType=Round|Shape=RoundedRectangle|*
%AMROUNDEDRECTD41*
21,1,0.07087,0.03543,0,0,180.0*
21,1,0.03543,0.07087,0,0,180.0*
1,1,0.03543,-0.01772,0.01772*
1,1,0.03543,0.01772,0.01772*
1,1,0.03543,0.01772,-0.01772*
1,1,0.03543,-0.01772,-0.01772*
%
%ADD41ROUNDEDRECTD41*%
%ADD42R,0.06299X0.07874*%
%ADD43C,0.19685*%
%ADD44R,0.07874X0.09449*%
G04:AMPARAMS|DCode=45|XSize=47.24mil|YSize=78.74mil|CornerRadius=11.81mil|HoleSize=0mil|Usage=FLASHONLY|Rotation=270.000|XOffset=0mil|YOffset=0mil|HoleType=Round|Shape=RoundedRectangle|*
%AMROUNDEDRECTD45*
21,1,0.04724,0.05512,0,0,270.0*
21,1,0.02362,0.07874,0,0,270.0*
1,1,0.02362,-0.02756,-0.01181*
1,1,0.02362,-0.02756,0.01181*
1,1,0.02362,0.02756,0.01181*
1,1,0.02362,0.02756,-0.01181*
%
%ADD45ROUNDEDRECTD45*%
%ADD46O,0.07874X0.04724*%
%ADD47R,0.07874X0.07874*%
%ADD48C,0.05906*%
%ADD49R,0.05906X0.05906*%
%ADD50R,0.05906X0.05906*%
%ADD51C,0.03150*%
G36*
X41732Y61417D02*
X41732Y49213D01*
X38583Y49213D01*
X36220Y51575D01*
X36220Y61417D01*
X41732Y61417D01*
D02*
G37*
G36*
X20079Y71653D02*
X20079Y57480D01*
X19291Y57480D01*
X15354Y61417D01*
X12598D01*
Y69291D01*
X14961Y71653D01*
X20079Y71653D01*
D02*
G37*
G36*
X27953Y33465D02*
X27953Y25197D01*
X17323Y25197D01*
X23228Y31102D01*
X23228Y35827D01*
X25591D01*
X27953Y33465D01*
D02*
G37*
G36*
X19291Y53937D02*
X19291Y36614D01*
X3937Y36614D01*
X3937Y57087D01*
X16142Y57087D01*
X19291Y53937D01*
D02*
G37*
G36*
X78740Y85827D02*
X67323D01*
X62992Y90158D01*
X78740D01*
Y85827D01*
D02*
G37*
G36*
X30709Y89764D02*
X27953Y89764D01*
X25984Y87795D01*
X24016D01*
X22047Y89764D01*
Y92520D01*
X30709D01*
Y89764D01*
D02*
G37*
G36*
X31496Y80315D02*
X49213D01*
X52362Y77165D01*
X52362Y66535D01*
X48031Y66535D01*
X45669Y64173D01*
X38189D01*
X38189Y70866D01*
X35827Y73228D01*
X35827Y76772D01*
X34646Y77953D01*
X31496Y77953D01*
X28740Y75197D01*
X28740Y83071D01*
X31496Y80315D01*
D02*
G37*
G36*
X43701Y87795D02*
X38583Y82677D01*
X32625Y82677D01*
X32283Y87795D01*
X36614Y92126D01*
X43701D01*
X43701Y87795D01*
D02*
G37*
D10*
X69685Y3937D02*
D03*
Y9843D02*
D03*
X55512D02*
D03*
Y3937D02*
D03*
D11*
X76772Y16142D02*
D03*
Y4331D02*
D03*
X48425D02*
D03*
Y16142D02*
D03*
D12*
X24606Y18110D02*
D03*
X22047D02*
D03*
X19488D02*
D03*
X16929D02*
D03*
X27165D02*
D03*
D13*
X28740Y84843D02*
D03*
X25000Y73425D02*
D03*
X28740Y73425D02*
D03*
X32480D02*
D03*
Y84843D02*
D03*
X25000D02*
D03*
X31890Y51575D02*
D03*
X28150Y51575D02*
D03*
X24409D02*
D03*
Y42126D02*
D03*
X31890D02*
D03*
D14*
X77559Y79134D02*
D03*
Y85433D02*
D03*
X31496Y23622D02*
D03*
Y29921D02*
D03*
D15*
X44685Y38976D02*
D03*
X50590Y38976D02*
D03*
X44685Y45276D02*
D03*
X50590Y45276D02*
D03*
X50591Y50787D02*
D03*
X44685Y50787D02*
D03*
X32480Y66535D02*
D03*
X26575Y66535D02*
D03*
D16*
X70492Y74409D02*
D03*
X65492D02*
D03*
X60492D02*
D03*
X55492D02*
D03*
Y47638D02*
D03*
X60492D02*
D03*
X65492D02*
D03*
X70492D02*
D03*
D17*
X76378Y50591D02*
D03*
X76378Y44685D02*
D03*
X54331Y86811D02*
D03*
X54331Y80906D02*
D03*
X60630Y80905D02*
D03*
X60630Y86811D02*
D03*
X37795Y26181D02*
D03*
X37795Y32087D02*
D03*
D18*
X40157Y84646D02*
D03*
X48031D02*
D03*
D19*
X38583Y37402D02*
D03*
Y45276D02*
D03*
D20*
X76378Y74016D02*
D03*
Y67716D02*
D03*
X72047Y81890D02*
D03*
Y88189D02*
D03*
X76378Y62205D02*
D03*
Y55905D02*
D03*
D21*
X28740Y58268D02*
D03*
X22441D02*
D03*
X31496Y35039D02*
D03*
X25197D02*
D03*
D22*
X43701Y58268D02*
D03*
Y75590D02*
D03*
D23*
X62598Y5512D02*
Y30315D01*
X66929Y31102D02*
X68110Y32283D01*
D24*
X66929Y31102D02*
X69685D01*
X54488D02*
X66929D01*
X44488D02*
X46850Y33465D01*
X85827Y65433D02*
X88583Y62677D01*
X83858Y57874D02*
X85827Y55905D01*
X9449Y4331D02*
X48425D01*
X69685Y3937D02*
X84331D01*
X37008Y6693D02*
Y12598D01*
X35827Y5512D02*
X37008Y6693D01*
X33071Y17323D02*
Y22047D01*
X32677Y17323D02*
X37008Y12992D01*
X55512Y3937D02*
X69685D01*
X48819D02*
X55512D01*
X8268Y5512D02*
X9449Y4331D01*
X48425D02*
X48819Y3937D01*
X84331D02*
X85827Y5433D01*
X31496Y23622D02*
X33071Y22047D01*
X24803Y29921D02*
X31496D01*
X83465Y87795D02*
X85827Y85433D01*
D25*
X50591Y50787D02*
Y62795D01*
Y45276D02*
Y50787D01*
X55512Y39764D02*
X61811D01*
X50590Y44685D02*
X55512Y39764D01*
X50590Y44685D02*
Y45276D01*
X50591Y45276D01*
X50000Y63386D02*
X50591Y62795D01*
X44685Y38976D02*
Y45276D01*
X61811Y39764D02*
X64961Y36614D01*
X85827Y55905D02*
Y56299D01*
Y55433D02*
Y55905D01*
Y54724D02*
Y55433D01*
X48425Y16142D02*
Y17126D01*
X8268Y5512D02*
X35827D01*
X73228Y54724D02*
X74803D01*
X70492Y51988D02*
X73228Y54724D01*
X70492Y47638D02*
Y51988D01*
X72835Y57874D02*
X74803D01*
X70472Y60236D02*
X72835Y57874D01*
X59449Y60236D02*
X70472D01*
X31890Y51575D02*
X38189Y45276D01*
X38583D01*
X37795Y36614D02*
X38583Y37402D01*
X37795Y31890D02*
Y36614D01*
X31496Y29921D02*
X35039Y26378D01*
X37795D01*
X40551Y50787D02*
X44882D01*
X39961Y85236D02*
Y91339D01*
X60492Y74409D02*
Y81102D01*
X65492Y68366D02*
Y74409D01*
X85827Y34724D02*
Y36220D01*
X16929Y18110D02*
Y24016D01*
X27165Y18110D02*
X32283D01*
X28150Y51575D02*
Y57283D01*
X16929Y24016D02*
X18898Y25984D01*
X65492Y68366D02*
X66535Y67323D01*
X66929D01*
X28346Y57480D02*
X31102D01*
X28740Y73425D02*
Y84842D01*
X26772Y66535D02*
Y67716D01*
X28740Y69685D01*
Y72638D01*
X23228Y63386D02*
Y70472D01*
X24213Y71457D01*
X70492Y44488D02*
X76378D01*
X70472Y70472D02*
Y72835D01*
Y70472D02*
X73622Y67323D01*
X77559D01*
X72047Y81102D02*
Y82284D01*
Y81102D02*
X75197Y77953D01*
X77559D01*
X55492Y69705D02*
Y74409D01*
X50787Y68898D02*
X59449Y60236D01*
X50787Y68898D02*
Y76378D01*
X23228Y63386D02*
X24409Y62205D01*
X35433D01*
X36614Y61024D01*
X31102Y57480D02*
X31890Y58268D01*
X33071D01*
X19685D02*
X22835D01*
X24409Y56693D01*
Y51575D02*
Y56693D01*
X28346Y38976D02*
X31102Y36220D01*
X28346Y38976D02*
Y51378D01*
X24409Y30315D02*
X25591D01*
X55492Y47638D02*
Y55098D01*
X57480Y57087D01*
X70492Y44488D02*
Y47638D01*
X71653Y63779D02*
X73622Y61811D01*
X76378D01*
X74803Y57874D02*
X76378Y56299D01*
X74803Y54724D02*
X76378Y56299D01*
X47638Y84646D02*
Y85433D01*
X39961Y85236D02*
X40551Y84646D01*
X60630Y86614D02*
X61417Y85827D01*
X47638Y84646D02*
X49606Y86614D01*
X54331D01*
X55492Y74409D02*
Y79941D01*
X54331Y81102D02*
X55492Y79941D01*
X32480Y84842D02*
Y86417D01*
X36614Y90551D01*
Y91339D01*
Y91732D01*
X61417Y85827D02*
X62598D01*
X66535Y81890D01*
X36614Y55512D02*
Y61024D01*
X24803Y33465D02*
X26772Y31496D01*
X25591Y30315D02*
X26772Y31496D01*
X24016Y42126D02*
X24409Y41732D01*
X24803Y41339D01*
X55492Y69705D02*
X57480Y67716D01*
Y67126D02*
Y67716D01*
X61713Y67224D02*
X65158Y63779D01*
X71653D01*
X65492Y47638D02*
Y52500D01*
X66929Y53937D01*
X60492Y47638D02*
Y54193D01*
X62598Y56299D01*
D26*
X44488Y31102D02*
Y32283D01*
X50590Y38386D01*
Y38976D01*
X32677Y41339D02*
X44488D01*
X88583Y62677D02*
X91732Y59528D01*
X76772Y16142D02*
X81102Y20472D01*
X88976D01*
X91732Y23228D01*
Y59528D01*
D27*
X80709Y61024D02*
X83858Y57874D01*
X31890Y42126D02*
X32677Y41339D01*
X77559Y67323D02*
X80709Y64173D01*
Y61024D02*
Y64173D01*
X85827Y65433D02*
Y66142D01*
D28*
X24409Y30315D02*
Y41732D01*
X24409Y30315D02*
X24803Y29921D01*
X25000Y84842D02*
Y89961D01*
X24409Y41732D02*
Y42126D01*
D29*
X76378Y50394D02*
X81496D01*
X85827Y54724D01*
X61614Y67126D02*
X61713Y67224D01*
X57480Y67126D02*
X61614D01*
D30*
X9449Y66535D02*
D03*
D31*
X73425Y13780D02*
D03*
D32*
X52165Y14173D02*
D03*
D33*
X8661Y21654D02*
D03*
D34*
X82087Y86221D02*
D03*
D35*
Y75394D02*
D03*
D36*
X27362Y91339D02*
D03*
D37*
X58071Y91142D02*
D03*
D38*
X32874Y69095D02*
D03*
D39*
X35827Y5512D02*
D03*
X8268D02*
D03*
D40*
X11417Y17323D02*
D03*
X32677D02*
D03*
D41*
X17323Y6299D02*
D03*
X26772D02*
D03*
D42*
X7087Y12598D02*
D03*
X37008D02*
D03*
D43*
X70079Y31496D02*
D03*
X11811Y35433D02*
D03*
D44*
Y67716D02*
D03*
D45*
Y63386D02*
D03*
D46*
Y55512D02*
D03*
D47*
Y51181D02*
D03*
D48*
X55276Y30315D02*
D03*
X85827Y65433D02*
D03*
Y55433D02*
D03*
Y45433D02*
D03*
Y35433D02*
D03*
Y25433D02*
D03*
Y15433D02*
D03*
Y5433D02*
D03*
Y75433D02*
D03*
D49*
X45276Y30315D02*
D03*
D50*
X85827Y85433D02*
D03*
D51*
X55512Y9843D02*
D03*
Y3937D02*
D03*
X69685D02*
D03*
Y9843D02*
D03*
X77559Y89370D02*
D03*
X40551Y50787D02*
D03*
X64961Y36614D02*
D03*
X75197Y26378D02*
D03*
X64961D02*
D03*
X75197Y36614D02*
D03*
X16929Y40551D02*
D03*
Y30315D02*
D03*
X6693D02*
D03*
Y40551D02*
D03*
X70079Y24409D02*
D03*
X62992Y31496D02*
D03*
X70079Y38583D02*
D03*
X77165Y31496D02*
D03*
X18898Y35433D02*
D03*
X11811Y28346D02*
D03*
X4724Y35433D02*
D03*
X11811Y42520D02*
D03*
X27165Y91339D02*
D03*
X23622D02*
D03*
X34646Y69685D02*
D03*
X66929Y67323D02*
D03*
X33071Y58268D02*
D03*
X28346Y46457D02*
D03*
X24409Y30315D02*
D03*
X57480Y57087D02*
D03*
X20866Y26378D02*
D03*
X24409Y26772D02*
D03*
X50000Y63386D02*
D03*
X37008Y51968D02*
D03*
X36614Y55512D02*
D03*
X66535Y81890D02*
D03*
X50787Y75197D02*
D03*
X30709Y91339D02*
D03*
X36614D02*
D03*
X41339D02*
D03*
X46063D02*
D03*
X50787D02*
D03*
X55512D02*
D03*
X60236D02*
D03*
X64961D02*
D03*
X65748Y87795D02*
D03*
X68504Y90551D02*
D03*
X57480Y67126D02*
D03*
X61713Y67224D02*
D03*
X66929Y53937D02*
D03*
X62598Y56299D02*
D03*
M02*
